<svg width="314" height="225" viewBox="0 0 314 225" fill="none" xmlns="http://www.w3.org/2000/svg">
<path d="M110.713 63.8444L153.679 191.494C156.008 198.404 169.523 198.76 172.558 192.001L215.171 97.0975L222.838 116.747C223.414 118.225 224.65 119.527 226.355 120.454C228.061 121.382 230.143 121.884 232.284 121.885H277.997C280.599 121.885 283.095 121.144 284.935 119.826C286.776 118.507 287.809 116.719 287.809 114.854C287.809 112.989 286.776 111.2 284.935 109.882C283.095 108.563 280.599 107.822 277.997 107.822H239.728L225.271 70.7912C222.654 64.0694 209.466 63.8912 206.483 70.5287L164.564 163.876L120.709 33.5069C118.328 26.41 104.29 26.2975 101.686 33.3569L74.1848 107.822H35.9814C33.379 107.822 30.8832 108.563 29.043 109.882C27.2028 111.2 26.1689 112.989 26.1689 114.854C26.1689 116.719 27.2028 118.507 29.043 119.826C30.8832 121.144 33.379 121.885 35.9814 121.885H81.7208C83.8857 121.885 85.9899 121.372 87.7055 120.426C89.4212 119.48 90.652 118.153 91.2062 116.654L110.713 63.8444Z" fill="#5FA8D3"/>
</svg>
