<svg width="901" height="622" viewBox="0 0 901 622" fill="none" xmlns="http://www.w3.org/2000/svg">
<g opacity="0.3" clip-path="url(#clip0_614:14)">
<path opacity="0.5" d="M523.496 109.695C465.735 107.772 410.677 89.9063 358.183 70.3642C305.689 50.8222 253.66 29.1662 197.25 18.8111C160.983 12.1434 119.505 11.2056 90.2882 29.8338C62.1664 47.7546 53.0829 78.6929 48.1968 107.398C44.5219 128.998 42.3899 151.727 52.4358 171.953C59.4289 185.987 71.839 197.789 80.4249 211.236C110.289 258.02 89.1766 315.717 56.8075 361.437C41.6268 382.894 24.0154 403.31 12.3021 426.127C0.588879 448.943 -4.83638 475.081 5.41687 498.35C15.5789 521.397 30.5771 538.889 56.8075 551.072C110.081 575.795 182.061 582.717 243.274 586.77C378.773 595.647 515.002 591.801 650.857 587.955C701.136 586.524 751.639 585.086 801.097 577.623C828.563 573.483 856.926 566.918 876.868 551.072C902.178 530.95 908.457 496.888 891.493 471.656C863.04 429.345 784.373 418.831 764.481 373.421C753.539 348.427 764.779 320.58 780.69 297.399C814.81 247.673 872.015 204.043 875.027 147.197C877.1 108.153 849.601 69.0609 807.078 50.5838C762.515 31.2007 700.713 33.6484 667.838 65.6834C633.984 98.6879 574.489 111.387 523.496 109.695Z" fill="#5FA8D3"/>
<path d="M200.959 576.2C200.959 576.2 155.334 543.156 146.715 501.124C143.219 483.47 133.844 467.378 119.995 455.261C113.369 449.561 106.214 444.453 98.6172 440.002" stroke="#535461" stroke-width="2" stroke-miterlimit="10"/>
<path d="M93.0341 413.522C97.0325 418.704 98.8409 440.662 98.8409 440.662C98.8409 440.662 77.4634 432.595 73.4567 427.422C71.5327 424.935 70.7188 421.817 71.1941 418.755C71.6693 415.693 73.3948 412.938 75.991 411.094C78.5871 409.251 81.8412 408.471 85.0374 408.927C88.2336 409.382 91.1101 411.035 93.0341 413.522Z" fill="#5FA8D3"/>
<path d="M131.376 430.752C131.791 437.181 120.865 456.556 120.865 456.556C120.865 456.556 107.485 438.643 107.062 432.214C106.901 429.149 108.007 426.147 110.141 423.858C112.275 421.568 115.264 420.177 118.461 419.985C121.658 419.792 124.806 420.815 127.221 422.83C129.637 424.845 131.127 427.692 131.368 430.752H131.376Z" fill="#5FA8D3"/>
<path d="M168.54 480.278C165.52 486.032 145.868 497.476 145.868 497.476C145.868 497.476 143.769 475.542 146.789 469.788C148.275 467.082 150.811 465.044 153.851 464.111C156.89 463.179 160.191 463.426 163.041 464.801C165.892 466.176 168.066 468.568 169.094 471.463C170.122 474.357 169.923 477.523 168.54 480.278Z" fill="#5FA8D3"/>
<path d="M187.86 523.797C185.894 529.956 168.548 544.412 168.548 544.412C168.548 544.412 162.6 523.137 164.566 516.97C165.511 514.011 167.645 511.533 170.497 510.08C173.349 508.628 176.687 508.32 179.776 509.226C182.865 510.131 185.452 512.175 186.968 514.907C188.484 517.64 188.805 520.838 187.86 523.797Z" fill="#5FA8D3"/>
<path d="M101.089 472.132C107.725 472.991 128.705 463.915 128.705 463.915C128.705 463.915 111.002 449.865 104.332 449.006C101.131 448.594 97.8904 449.417 95.3227 451.294C92.755 453.172 91.0709 455.949 90.6407 459.016C90.2106 462.082 91.0698 465.187 93.0292 467.647C94.9886 470.107 97.8878 471.72 101.089 472.132Z" fill="#5FA8D3"/>
<path d="M124.358 522.764C130.995 521.675 148.141 507.013 148.141 507.013C148.141 507.013 126.855 498.684 120.227 499.773C118.64 500.022 117.12 500.57 115.756 501.385C114.391 502.2 113.208 503.265 112.276 504.52C111.343 505.776 110.679 507.195 110.323 508.697C109.966 510.199 109.923 511.754 110.197 513.272C110.471 514.791 111.056 516.242 111.918 517.542C112.781 518.842 113.903 519.966 115.221 520.848C116.539 521.731 118.027 522.354 119.598 522.683C121.169 523.012 122.793 523.039 124.375 522.764H124.358Z" fill="#5FA8D3"/>
<path d="M154.014 569.009C160.742 569.009 180.236 557.334 180.236 557.334C180.236 557.334 160.734 545.676 154.006 545.676C150.776 545.676 147.679 546.905 145.395 549.093C143.111 551.281 141.828 554.248 141.828 557.342C141.828 560.436 143.111 563.404 145.395 565.592C147.679 567.78 150.776 569.009 154.006 569.009H154.014Z" fill="#5FA8D3"/>
<path d="M644.188 290.397C644.188 290.397 672.309 242.674 714.699 228.926C732.499 223.263 747.903 212.223 758.599 197.463C763.616 190.407 767.945 182.923 771.532 175.108" stroke="#535461" stroke-width="2" stroke-miterlimit="10"/>
<path d="M798.143 166.366C793.315 170.848 770.843 175.489 770.843 175.489C770.843 175.489 776.359 154.111 781.187 149.621C783.518 147.531 786.612 146.401 789.803 146.475C792.994 146.548 796.028 147.819 798.251 150.014C800.474 152.209 801.708 155.153 801.688 158.211C801.668 161.269 800.395 164.198 798.143 166.366Z" fill="#5FA8D3"/>
<path d="M785.435 205.013C778.798 206.269 757.338 198.464 757.338 198.464C757.338 198.464 774.095 183.365 780.69 182.133C782.273 181.796 783.911 181.766 785.507 182.044C787.103 182.322 788.624 182.903 789.983 183.752C791.341 184.601 792.509 185.702 793.417 186.989C794.326 188.277 794.956 189.725 795.272 191.249C795.588 192.773 795.584 194.342 795.258 195.865C794.932 197.387 794.292 198.831 793.376 200.114C792.46 201.396 791.285 202.49 789.921 203.331C788.558 204.172 787.032 204.744 785.435 205.013Z" fill="#5FA8D3"/>
<path d="M739.18 246.878C732.825 244.772 718.383 227.638 718.383 227.638C718.383 227.638 740.781 222.727 747.152 224.833C748.682 225.319 750.097 226.092 751.313 227.107C752.53 228.121 753.524 229.357 754.237 230.742C754.951 232.128 755.371 233.635 755.471 235.177C755.572 236.719 755.352 238.265 754.824 239.725C754.296 241.185 753.471 242.53 752.396 243.682C751.321 244.833 750.018 245.769 748.563 246.435C747.107 247.1 745.529 247.482 743.918 247.558C742.307 247.634 740.696 247.403 739.18 246.878Z" fill="#5FA8D3"/>
<path d="M696.673 271.006C690.037 269.957 672.815 255.374 672.815 255.374C672.815 255.374 694.044 246.902 700.672 247.951C703.862 248.454 706.713 250.15 708.598 252.667C710.483 255.183 711.247 258.314 710.722 261.37C710.197 264.426 708.427 267.158 705.8 268.963C703.173 270.769 699.905 271.501 696.715 270.998L696.673 271.006Z" fill="#5FA8D3"/>
<path d="M738.599 181.752C738.59 188.197 750.793 206.896 750.793 206.896C750.793 206.896 762.979 188.221 762.979 181.783C763.022 180.226 762.738 178.677 762.145 177.226C761.553 175.776 760.663 174.454 759.528 173.338C758.394 172.222 757.037 171.335 755.539 170.73C754.041 170.124 752.431 169.812 750.806 169.812C749.18 169.812 747.57 170.124 746.072 170.73C744.574 171.335 743.217 172.222 742.083 173.338C740.948 174.454 740.058 175.776 739.466 177.226C738.873 178.677 738.589 180.226 738.632 181.783L738.599 181.752Z" fill="#5FA8D3"/>
<path d="M689.299 210.568C691.306 216.719 708.76 231.064 708.76 231.064C708.76 231.064 714.567 209.749 712.542 203.598C711.493 200.748 709.33 198.4 706.509 197.047C703.688 195.695 700.429 195.444 697.419 196.347C694.408 197.25 691.881 199.237 690.37 201.89C688.858 204.543 688.48 207.654 689.315 210.568H689.299Z" fill="#5FA8D3"/>
<path d="M645.441 244.876C646.337 251.233 661.003 268.216 661.003 268.216C661.003 268.216 670.468 248.15 669.572 241.768C669.395 240.222 668.896 238.726 668.106 237.367C667.315 236.008 666.249 234.814 664.97 233.856C663.691 232.898 662.225 232.194 660.658 231.786C659.091 231.379 657.455 231.276 655.846 231.483C654.236 231.69 652.687 232.204 651.287 232.993C649.888 233.782 648.668 234.832 647.699 236.08C646.729 237.328 646.03 238.749 645.642 240.259C645.255 241.77 645.186 243.339 645.441 244.876Z" fill="#5FA8D3"/>
<path opacity="0.25" d="M798.143 166.366C793.315 170.848 770.843 175.489 770.843 175.489C770.843 175.489 776.359 154.111 781.187 149.621C783.518 147.531 786.612 146.401 789.803 146.475C792.994 146.548 796.028 147.819 798.251 150.014C800.474 152.209 801.708 155.153 801.688 158.211C801.668 161.269 800.395 164.198 798.143 166.366Z" fill="black"/>
<path opacity="0.25" d="M785.435 205.013C778.798 206.269 757.338 198.464 757.338 198.464C757.338 198.464 774.095 183.365 780.69 182.133C782.273 181.796 783.911 181.766 785.507 182.044C787.103 182.322 788.624 182.903 789.983 183.752C791.341 184.601 792.509 185.702 793.417 186.989C794.326 188.277 794.956 189.725 795.272 191.249C795.588 192.773 795.584 194.342 795.258 195.865C794.932 197.387 794.292 198.831 793.376 200.114C792.46 201.396 791.285 202.49 789.921 203.331C788.558 204.172 787.032 204.744 785.435 205.013Z" fill="black"/>
<path opacity="0.25" d="M739.18 246.878C732.825 244.772 718.383 227.638 718.383 227.638C718.383 227.638 740.781 222.727 747.152 224.833C748.682 225.319 750.097 226.092 751.313 227.107C752.53 228.121 753.524 229.357 754.237 230.742C754.951 232.128 755.371 233.635 755.471 235.177C755.572 236.719 755.352 238.265 754.824 239.725C754.296 241.185 753.471 242.53 752.396 243.682C751.321 244.833 750.018 245.769 748.563 246.435C747.107 247.1 745.529 247.482 743.918 247.558C742.307 247.634 740.696 247.403 739.18 246.878Z" fill="black"/>
<path opacity="0.25" d="M696.673 271.006C690.037 269.957 672.815 255.374 672.815 255.374C672.815 255.374 694.044 246.902 700.672 247.951C703.862 248.454 706.713 250.15 708.598 252.667C710.483 255.183 711.247 258.314 710.722 261.37C710.197 264.426 708.427 267.158 705.8 268.963C703.173 270.769 699.905 271.501 696.715 270.998L696.673 271.006Z" fill="black"/>
<path opacity="0.25" d="M738.599 181.752C738.59 188.197 750.793 206.896 750.793 206.896C750.793 206.896 762.979 188.221 762.979 181.783C763.022 180.226 762.738 178.677 762.145 177.226C761.553 175.776 760.663 174.454 759.528 173.338C758.394 172.222 757.037 171.335 755.539 170.73C754.041 170.124 752.431 169.812 750.806 169.812C749.18 169.812 747.57 170.124 746.072 170.73C744.574 171.335 743.217 172.222 742.083 173.338C740.948 174.454 740.058 175.776 739.466 177.226C738.873 178.677 738.589 180.226 738.632 181.783L738.599 181.752Z" fill="black"/>
<path opacity="0.25" d="M689.299 210.568C691.306 216.719 708.76 231.064 708.76 231.064C708.76 231.064 714.567 209.749 712.542 203.598C711.493 200.748 709.33 198.4 706.509 197.047C703.688 195.695 700.429 195.444 697.419 196.347C694.408 197.25 691.881 199.237 690.37 201.89C688.858 204.543 688.48 207.654 689.315 210.568H689.299Z" fill="black"/>
<path opacity="0.25" d="M645.441 244.876C646.337 251.233 661.003 268.216 661.003 268.216C661.003 268.216 670.468 248.15 669.572 241.768C669.395 240.222 668.896 238.726 668.106 237.367C667.315 236.008 666.249 234.814 664.97 233.856C663.691 232.898 662.225 232.194 660.658 231.786C659.091 231.379 657.455 231.276 655.846 231.483C654.236 231.69 652.687 232.204 651.287 232.993C649.888 233.782 648.668 234.832 647.699 236.08C646.729 237.328 646.03 238.749 645.642 240.259C645.255 241.77 645.186 243.339 645.441 244.876Z" fill="black"/>
<path d="M645.806 289.451C645.806 289.451 651.33 234.902 684.23 205.895C698.107 193.806 707.52 177.734 711.058 160.088C712.668 151.699 713.471 143.186 713.455 134.657" stroke="#535461" stroke-width="2" stroke-miterlimit="10"/>
<path d="M734.078 116.251C731.589 122.227 712.974 135.197 712.974 135.197C712.974 135.197 708.975 113.509 711.489 107.533C712.699 104.663 715.049 102.372 718.023 101.162C720.997 99.9528 724.35 99.9246 727.346 101.084C730.341 102.243 732.733 104.495 733.996 107.344C735.258 110.193 735.288 113.405 734.078 116.275V116.251Z" fill="#5FA8D3"/>
<path d="M738.815 156.559C733.315 160.262 710.361 161.478 710.361 161.478C710.361 161.478 719.304 141.181 724.804 137.478C726.108 136.542 727.595 135.867 729.177 135.493C730.758 135.118 732.402 135.051 734.011 135.296C735.62 135.541 737.161 136.092 738.544 136.918C739.926 137.744 741.122 138.827 742.06 140.104C742.997 141.38 743.658 142.824 744.003 144.349C744.347 145.874 744.369 147.451 744.067 148.984C743.764 150.518 743.143 151.978 742.241 153.277C741.339 154.577 740.174 155.69 738.815 156.551V156.559Z" fill="#5FA8D3"/>
<path d="M714.21 212.809C707.508 213.349 687.051 203.272 687.051 203.272C687.051 203.272 705.467 190.08 712.17 189.54C715.388 189.281 718.583 190.257 721.05 192.254C723.517 194.251 725.056 197.105 725.326 200.189C725.597 203.273 724.578 206.333 722.493 208.697C720.408 211.06 717.429 212.534 714.21 212.793V212.809Z" fill="#5FA8D3"/>
<path d="M685.582 251.345C679.07 252.934 657.137 246.362 657.137 246.362C657.137 246.362 672.956 230.38 679.468 228.759C682.595 227.982 685.915 228.427 688.699 229.996C691.483 231.564 693.502 234.128 694.313 237.123C695.124 240.118 694.659 243.299 693.022 245.966C691.385 248.633 688.708 250.568 685.582 251.345Z" fill="#5FA8D3"/>
<path d="M686.163 153.476C688.884 159.364 707.914 171.754 707.914 171.754C707.914 171.754 711.149 149.947 708.428 144.058C707.072 141.303 704.646 139.165 701.666 138.101C698.687 137.038 695.392 137.132 692.484 138.365C689.577 139.598 687.288 141.871 686.107 144.699C684.926 147.527 684.946 150.686 686.163 153.499V153.476Z" fill="#5FA8D3"/>
<path d="M653.279 198.949C657.717 203.789 679.733 210.131 679.733 210.131C679.733 210.131 676.017 188.395 671.579 183.556C670.531 182.38 669.25 181.415 667.81 180.718C666.37 180.02 664.8 179.604 663.191 179.493C661.581 179.382 659.965 179.579 658.435 180.071C656.906 180.564 655.494 181.343 654.281 182.363C653.069 183.383 652.08 184.624 651.372 186.013C650.665 187.402 650.252 188.912 650.159 190.455C650.066 191.998 650.294 193.544 650.829 195.002C651.365 196.46 652.198 197.802 653.279 198.949Z" fill="#5FA8D3"/>
<path d="M627.655 247.363C631.172 252.847 651.753 262.662 651.753 262.662C651.753 262.662 651.928 240.64 648.435 235.148C646.697 232.613 643.996 230.826 640.905 230.166C637.814 229.506 634.577 230.026 631.879 231.615C629.181 233.204 627.236 235.737 626.455 238.677C625.674 241.617 626.12 244.733 627.697 247.363H627.655Z" fill="#5FA8D3"/>
<path d="M603.498 75.8237C604.875 70.9839 606.534 66.1202 607.695 61.2168C606.302 66.1202 604.635 70.9998 603.498 75.8237Z" fill="url(#paint0_linear_614:14)"/>
<path d="M597.326 122.442C597.21 122.251 597.127 122.06 597.036 121.885C597.036 121.806 596.953 121.742 596.92 121.663C596.739 121.744 596.553 121.816 596.364 121.877C595.999 122.012 595.626 122.14 595.244 122.243C594.863 122.346 594.705 122.402 594.415 122.465C594.174 122.545 593.927 122.606 593.676 122.648L593.743 122.791C594.05 122.728 594.348 122.672 594.655 122.593L594.738 123.578C595.087 123.578 595.41 123.53 595.725 123.53C595.875 123.522 596.024 123.522 596.173 123.53C596.82 123.53 597.384 123.53 597.832 123.53C597.658 123.173 597.476 122.799 597.326 122.442ZM765.725 379.238C761.826 374.207 754.045 320.214 754.045 320.214C754.045 320.214 738.74 281.822 742.912 266.5C747.085 251.178 731.514 211.974 731.514 211.974C731.514 211.974 721.228 207.691 720.672 201.333C720.672 201.333 678.672 188.618 676.706 179.081C675.113 171.261 649.065 165.65 639.708 163.878C636.854 152.847 633.984 142.556 631.869 136.937C631.296 135.189 630.757 133.679 630.259 132.487C626.684 123.745 615.634 122.95 607.621 123.65C607.274 122.16 606.629 120.748 605.721 119.493C605.589 119.062 605.326 118.677 604.967 118.389C604.794 118.248 604.611 118.121 604.419 118.007C604.274 117.749 604.083 117.518 603.855 117.324C603.627 117.127 603.377 116.956 603.108 116.815C602.915 116.715 602.716 116.627 602.511 116.553C602.03 116.377 601.533 116.247 601.026 116.163C600.435 116.047 599.836 115.973 599.234 115.941C600.698 115.327 602.004 114.413 603.059 113.263C603.776 112.455 604.31 111.513 604.626 110.497C604.889 109.652 605.007 108.772 604.975 107.89C604.76 108.253 604.51 108.597 604.228 108.916C604.577 105.395 602.635 101.819 601.524 98.314C600.177 93.7514 599.927 88.9556 600.794 84.2873C601.905 77.2461 604.66 70.1254 606.526 62.9571C606.531 62.9175 606.531 62.8775 606.526 62.8379C607.505 59.2779 608.111 55.6334 608.335 51.9582C608.658 44.5436 606.675 37.1448 603.49 30.3897C600.661 24.4055 596.488 18.5166 590.101 16.0848C585.356 14.249 580.039 14.543 574.928 14.2411C563.464 13.5576 552.531 9.69528 541.63 6.18264C530.73 2.67 519.514 -0.52476 508.042 0.0871709C496.569 0.699102 484.765 5.99985 479.53 15.7272C477.871 18.763 476.917 22.1405 474.934 24.9936C471.218 30.3738 464.565 33.0679 459.015 36.7792C453.466 40.4905 448.58 45.7595 446.572 52.0457C445.476 55.4324 445.321 59.0347 446.124 62.4962C446.305 63.2779 446.538 64.0477 446.821 64.8008C447.608 66.9007 448.836 68.8237 450.43 70.4513C451.631 71.6542 453.012 72.6799 454.527 73.495C456.431 74.5056 458.468 75.2649 460.583 75.752C460.509 75.9904 460.434 76.2448 460.351 76.4911C460.218 76.8964 460.102 77.2858 459.978 77.7229C459.704 78.7004 459.447 79.6938 459.231 80.6952C459.222 80.7664 459.222 80.8384 459.231 80.9097C458.212 85.43 457.7 90.0417 457.705 94.6663C457.703 96.8534 457.819 99.0391 458.053 101.215C461.371 133.464 489.161 158.903 523.496 160.556C524.674 160.612 525.861 160.644 527.063 160.644C527.611 160.644 528.15 160.644 528.723 160.644C529.262 161.327 529.793 162.026 530.299 162.71C530.805 163.393 531.269 164.093 531.709 164.776L530.506 163.584L529.303 162.527C528.977 162.956 528.614 163.357 528.216 163.727C527.432 163.463 526.631 163.245 525.819 163.075C522.376 162.344 517.134 162.074 510.232 164.069C503.886 165.889 496.129 169.632 487.054 176.744L442.831 202.175L418.907 216.115L410.288 236.3C410.288 236.3 403.809 260.285 396.6 287.766C396.318 287.846 396.044 287.925 395.77 288.021C395.187 287.957 394.599 287.925 394.012 287.925C389.829 287.916 385.806 289.46 382.786 292.232C379.767 295.005 377.986 298.791 377.819 302.794C363.484 319.483 362.671 336.172 366.039 343.833C366.344 344.551 366.728 345.236 367.184 345.876C369.391 348.928 373.514 356.795 377.695 365.179C377.587 365.871 377.52 366.451 377.487 366.888C377.48 367.031 377.48 367.174 377.487 367.317C377.487 367.317 379.976 403.326 371.68 413.649C369.864 415.898 370.137 418.855 371.68 422.129C377.238 433.906 399.213 449.634 399.213 449.634C399.213 449.634 425.568 449.499 440.251 447.965C440.209 449.38 440.176 450.786 440.143 452.161C439.811 466.053 439.811 477.695 439.811 477.695L439.264 492.262C439.264 492.262 434.286 522.962 431.798 531.426C430.23 536.735 432.038 585.888 433.615 622.023H693.28C696.333 600.646 692.028 535.694 692.028 535.694C692.028 535.694 687.938 518.901 687.789 504.263C687.781 504.246 687.776 504.229 687.776 504.211C687.776 504.193 687.781 504.175 687.789 504.159C687.789 502.88 687.789 501.632 687.839 500.408L689.722 500.345L693.106 500.233H693.413C693.413 500.233 693.496 499.931 693.687 499.439C694.135 498.211 694.745 497.044 695.504 495.966C696.947 493.923 699.203 491.921 702.596 491.786C704.471 491.714 707.375 490.26 710.651 488.114C710.673 488.119 710.696 488.119 710.718 488.114C719.536 482.4 731.191 471.854 734.02 470.122C737.91 467.737 756.542 451.843 756.542 451.843C756.542 451.843 759.321 448.474 762.282 444.413L762.39 444.27C766.073 439.183 769.989 433.104 769.027 431.188C767.368 427.755 770.138 419.546 770.138 419.546C778.791 404.375 769.624 384.268 765.725 379.238ZM605.315 134.799C605.394 135.037 605.445 135.282 605.464 135.531C605.257 135.268 605.049 134.99 604.842 134.736L604.643 134.482L604.502 134.291L604.817 133.878C604.817 133.878 604.817 133.878 604.817 133.933C605.036 134.191 605.205 134.484 605.315 134.799ZM602.528 127.758C601.623 127.933 600.91 128.092 600.445 128.211C599.856 127.21 599.292 126.209 598.786 125.191C600.116 125.93 601.369 126.79 602.528 127.758ZM600.968 129.014C600.966 128.998 600.966 128.982 600.968 128.966L601.034 129.014C601.375 129.228 601.706 129.435 602.013 129.65C602.287 129.84 602.536 130.023 602.785 130.214C602.619 130.492 602.436 130.778 602.254 131.009C601.964 130.571 601.69 130.15 601.424 129.713C601.258 129.538 601.109 129.3 600.968 129.014ZM595.991 119.207C597.593 119.056 599.208 119.056 600.81 119.207C601.034 119.207 601.234 119.247 601.433 119.279C601.882 119.345 602.324 119.454 602.752 119.604C603.732 120.918 604.336 122.456 604.502 124.063L604.054 124.126L603.614 124.206C602.785 124.341 601.955 124.476 601.308 124.603L600.479 124.77C599.375 125.001 598.737 125.175 598.712 125.183C598.604 124.969 598.496 124.77 598.38 124.563C598.197 124.222 598.007 123.872 597.841 123.53C597.675 123.189 597.459 122.799 597.285 122.442C597.169 122.251 597.086 122.06 596.995 121.885C596.995 121.806 596.912 121.742 596.878 121.663C596.83 121.578 596.788 121.491 596.754 121.4C596.248 120.415 595.783 119.43 595.335 118.46C595.286 118.365 595.244 118.261 595.203 118.166L595.833 118.126V118.333L595.991 119.207ZM398.068 612.201C398.002 600.367 397.106 587.565 394.617 575.549C393.556 570.439 392.461 565.328 391.349 560.306C391.067 559.05 390.793 557.81 390.519 556.571L387.964 556.897H387.732C380.764 525.418 373.48 497.682 373.48 497.682C373.48 497.682 359.013 444.762 360.689 440.542C360.904 439.994 360.631 438.516 360.017 436.346C356.516 424.314 341.899 391.159 336.789 379.826C336.789 379.778 336.748 379.723 336.731 379.683C335.902 377.784 335.304 376.504 335.122 376.131L336.325 359.219L336.391 358.202L336.549 356.04L336.482 355.985L336.549 354.983C336.549 354.983 323.923 345.065 302.537 337.905C301.708 337.619 300.828 337.341 299.957 337.07C301.027 330.228 302.446 322.503 304.296 314.977C304.47 314.222 304.661 313.491 304.86 312.752C305.034 312.013 305.233 311.298 305.432 310.575C305.748 309.398 306.088 308.238 306.436 307.094C307.589 306.744 308.726 306.355 309.846 305.941L310.277 305.782C324.073 300.64 335.457 290.882 342.32 278.316C349.184 265.75 351.062 251.227 347.607 237.437C345.637 229.616 341.999 222.27 336.922 215.86C336.541 215.368 336.134 214.875 335.728 214.39C335.321 213.905 334.832 213.365 334.375 212.872C336.773 207.651 339.602 202.684 339.834 197.606C339.875 196.963 339.875 196.318 339.834 195.675V195.595C339.527 192.329 338.017 189.023 334.5 185.55C329.365 180.456 322.057 177.873 314.748 176.633C307.44 175.393 299.991 175.362 292.641 174.527C280.455 173.128 268.584 169.528 256.398 168.424C241.388 167.092 226.276 169.559 212.572 175.576C203.505 179.55 194.322 186.496 193.775 196.024C193.327 203.9 199.051 211.45 197.607 219.23C196.172 226.875 188.043 232.891 188.756 240.624C189.03 243.644 190.647 246.346 192.672 248.754C193.368 249.548 194.107 250.343 194.87 251.138C197.823 254.134 201.075 257.011 202.726 260.786C202.792 260.945 202.858 261.104 202.917 261.262C204.318 264.99 203.688 269.702 200.22 271.84C200.24 271.854 200.254 271.874 200.262 271.896C200.312 271.959 200.361 272.007 200.403 272.071C200.408 272.058 200.408 272.044 200.403 272.031C201.632 273.427 203.29 274.417 205.14 274.86L205.845 275.067C205.272 275.663 204.733 276.283 204.186 276.934L203.829 277.387C202.915 278.565 202.083 279.799 201.34 281.083C200.917 281.798 200.511 282.513 200.171 283.228C199.034 285.409 198.21 287.726 197.724 290.119C196.836 295.38 198.089 300.863 196.745 306.013C195.086 312.371 189.834 317.25 186.873 323.155C181.265 334.281 184.442 347.338 185.571 359.624C187.105 376.313 184.617 393.074 182.136 409.652C180.82 418.468 179.504 427.292 178.188 436.124C174.869 458.291 171.551 480.458 168.233 502.625C167.022 510.747 165.587 519.315 159.938 525.585H159.996C159.996 525.585 159.996 525.633 159.938 525.648C161.633 526.358 163.437 526.804 165.28 526.968C172.655 527.675 180.469 524.258 187.105 520.522C192.361 517.613 197.338 514.265 201.979 510.517C201.299 512.901 200.569 515.5 199.789 518.297C199.792 518.324 199.792 518.35 199.789 518.377C190.423 552.549 175.359 615.197 175.359 615.197C175.359 615.197 173.99 617.923 172.215 621.984H406.148C403.411 618.805 400.864 615.761 398.873 613.305L398.068 612.201ZM224.858 296.222C224.916 296.127 224.958 296.039 225.016 295.952C225.016 296.206 225.016 296.452 225.016 296.691C225.016 296.929 225.016 297.144 225.016 297.366C225.016 297.589 225.016 297.565 225.016 297.676C225.016 297.788 225.016 297.676 225.016 297.676C225.016 298.002 224.941 298.328 224.883 298.654C224.883 298.654 224.883 298.694 224.883 298.725L225.713 299.019L226.675 299.401C232.36 301.552 238.117 303.499 243.946 305.242C244.543 305.425 245.149 305.6 245.755 305.767L245.879 306.752C246.028 307.761 246.169 308.786 246.302 309.812C246.302 309.812 246.302 309.859 246.302 309.891C246.675 312.728 247.04 315.557 247.364 318.323C247.364 318.323 232.133 312.76 232.324 321.208C232.315 321.359 232.315 321.51 232.324 321.661C232.307 321.862 232.307 322.064 232.324 322.265C232.465 328.845 234.614 332.747 235.045 334.75C235.019 334.833 234.974 334.909 234.912 334.972C234.544 335.74 234.417 336.593 234.547 337.428C234.533 338.85 234.649 340.27 234.896 341.672C234.448 341.934 234.008 342.196 233.568 342.466C233.237 342.665 232.921 342.888 232.598 343.11C230.563 336.348 227.9 329.773 224.642 323.465C222.361 318.967 219.798 314.278 219.823 309.343C219.823 309.025 219.823 308.699 219.864 308.373C219.957 306.943 220.241 305.53 220.71 304.169C220.901 303.653 221.109 303.144 221.341 302.643C221.883 301.454 222.489 300.292 223.158 299.162C223.589 298.415 224.045 297.676 224.485 296.929C224.626 296.707 224.759 296.476 224.891 296.254L224.858 296.222ZM597.326 122.442C597.21 122.251 597.127 122.06 597.036 121.885C597.036 121.806 596.953 121.742 596.92 121.663C596.739 121.744 596.553 121.816 596.364 121.877C595.999 122.012 595.626 122.14 595.244 122.243C594.863 122.346 594.705 122.402 594.415 122.465L593.676 122.648L593.743 122.791C594.05 122.728 594.348 122.672 594.655 122.593L594.738 123.578C595.087 123.578 595.41 123.53 595.725 123.53H596.173C596.82 123.53 597.384 123.53 597.832 123.53C597.658 123.173 597.476 122.799 597.326 122.442Z" fill="url(#paint1_linear_614:14)"/>
<path d="M416.069 239.17L411.092 241.276C411.092 241.276 378.648 362.025 378.648 371.784C378.648 381.543 447.443 435.846 447.443 435.846L458.177 366.435C458.177 366.435 442.764 207.262 416.069 239.17Z" fill="#E8F5FF"/>
<path d="M566.973 200.761L538.229 186.393C536.619 179.818 533.763 173.582 529.801 167.995C525.595 162.178 520.004 156.464 513.036 153.483C495.425 145.918 587.53 106.206 587.53 106.206C588.98 110.976 590.689 115.671 592.648 120.272C597.393 131.494 605.265 146.005 615.411 150.138C632.657 157.171 566.973 200.761 566.973 200.761Z" fill="#FFC1C7"/>
<path opacity="0.1" d="M592.648 120.272C588.712 133.532 580.528 145.272 569.252 153.835C557.975 162.399 544.175 167.351 529.801 167.995C525.595 162.178 520.004 156.464 513.036 153.483C495.425 145.918 587.53 106.206 587.53 106.206C588.98 110.976 590.689 115.671 592.648 120.272Z" fill="black"/>
<path d="M595.236 100.222C595.239 113.226 591.217 125.939 583.678 136.754C576.138 147.568 565.42 155.997 552.88 160.976C540.34 165.954 526.54 167.258 513.226 164.722C499.912 162.187 487.682 155.925 478.082 146.73C468.483 137.535 461.946 125.82 459.297 113.065C456.649 100.31 458.008 87.0899 463.203 75.0755C468.399 63.061 477.196 52.7924 488.483 45.5683C499.771 38.3442 513.041 34.4891 526.616 34.4907C535.638 34.4507 544.579 36.1235 552.923 39.4126C561.267 42.7016 568.847 47.5417 575.228 53.6532C581.608 59.7648 586.661 67.0267 590.095 75.0197C593.529 83.0126 595.277 91.5781 595.236 100.222Z" fill="#FFC1C7"/>
<path d="M605.14 192.321L586.426 234.155L569.918 261.922H517.075L501.662 223.959L507.909 184.589H548.266L574.323 183.182L583.124 180.369L588.798 183.452L605.14 192.321Z" fill="#575A89"/>
<path opacity="0.1" d="M598.695 136.556C598.695 136.556 610.367 138.94 599.914 147.15C589.462 155.359 553.401 181.466 553.401 181.466C553.401 181.466 566.069 192.274 563.447 204.934L605.414 182.523L612.88 146.665C612.88 146.665 613.718 135.889 598.695 136.556Z" fill="black"/>
<path opacity="0.1" d="M561.656 181.465L534.961 185.685C534.961 185.685 540.469 205.196 537.715 210.735C537.631 210.907 537.562 211.085 537.507 211.267L526.615 239.472L534.778 261.62L563.033 224.706L553.401 210.735C553.401 210.735 563.58 197.813 569.636 193.33C575.692 188.848 561.656 181.465 561.656 181.465Z" fill="black"/>
<path d="M561.656 180.377L534.961 184.589C534.961 184.589 540.469 204.099 537.715 209.638C537.631 209.81 537.562 209.988 537.507 210.171L526.615 238.375L534.778 260.524L563.033 223.585L553.401 209.614C553.401 209.614 563.58 196.692 569.636 192.21C575.692 187.728 561.656 180.377 561.656 180.377Z" fill="#DCE6F2"/>
<path d="M599.815 134.45C599.815 134.45 611.486 136.834 601.026 145.044C590.565 153.253 553.401 181.465 553.401 181.465C553.401 181.465 567.164 190.167 564.551 202.819L606.517 180.416L613.983 144.559C613.983 144.559 614.813 133.782 599.815 134.45Z" fill="#575A89"/>
<path opacity="0.1" d="M531.634 170.482C531.634 170.482 534.181 175.044 545.421 183.269C545.421 183.269 526.707 192.806 533.866 206.213L505.238 199.06L500.833 185.876L531.634 170.482Z" fill="black"/>
<path d="M530.531 169.433C530.531 169.433 533.078 173.995 544.318 182.22C544.318 182.22 525.604 191.709 532.763 205.156L504.143 198.003L499.738 184.827L530.531 169.433Z" fill="#575A89"/>
<path opacity="0.1" d="M605.14 192.321L586.426 234.155L569.951 261.922H517.075L501.662 223.959L507.9 184.589H519.124C518.942 193.775 522.442 204.568 522.218 208.581C521.837 215.177 532.488 250.765 532.488 250.765C532.488 250.765 554.778 216.226 563.58 213.151C569.113 211.22 580.834 195.15 588.79 183.452L605.14 192.321Z" fill="black"/>
<path d="M678.863 412.465L676.963 414.754C676.963 414.754 690.726 480.93 686.918 495.958C686.271 498.667 685.901 501.43 685.815 504.207V504.326C685.143 519.617 689.962 539.461 689.962 539.461C689.962 539.461 693.811 597.952 691.621 622.008H433.946C432.437 586.436 430.811 540.351 432.287 535.241C434.776 526.809 439.753 496.22 439.753 496.22L440.301 481.725C440.301 481.725 440.301 467.714 440.749 452.106C440.94 445.088 441.222 437.721 441.628 431.189C442.151 422.971 442.881 416.05 443.884 412.648C444.503 410.07 444.858 407.44 444.946 404.796C444.946 404.55 444.946 404.296 444.996 404.041C444.996 403.247 445.079 402.388 445.112 401.506C445.112 401.26 445.112 401.013 445.112 400.711C445.27 395.594 445.212 389.522 445.038 383.228C445.038 382.886 445.038 382.536 445.038 382.187C444.896 377.466 444.689 372.65 444.457 368.073C443.735 353.768 442.798 341.672 442.798 341.672L411.15 241.22L419.678 221.098L443.345 207.206L487.104 181.895C508.448 165.086 522.501 167.105 527.86 168.949C528.38 169.119 528.89 169.318 529.386 169.545C529.552 169.624 529.685 169.688 529.809 169.759C529.98 169.837 530.143 169.927 530.299 170.029C528.831 170.706 527.556 171.712 526.582 172.962C525.485 174.385 524.703 176.007 524.285 177.73C524.004 178.798 523.807 179.885 523.696 180.981C523.588 182.133 523.546 183.325 523.546 184.525C523.605 187.157 523.841 189.782 524.251 192.385C524.251 192.432 524.251 192.496 524.251 192.56C524.525 194.419 524.865 196.239 525.197 197.948C525.193 197.977 525.193 198.006 525.197 198.035C525.579 200.03 525.96 201.874 526.217 203.463C526.267 203.749 526.309 204.011 526.35 204.258C526.533 205.308 526.619 206.372 526.607 207.437C526.701 210.008 527.062 212.564 527.686 215.066C527.901 216.115 528.15 217.236 528.424 218.404C528.797 219.993 529.204 221.726 529.643 223.49C529.884 224.459 530.141 225.461 530.407 226.454C530.506 226.852 530.614 227.249 530.714 227.654L530.879 228.282C532.646 235.013 534.563 241.713 535.741 245.766C536.437 248.15 536.877 249.62 536.877 249.62C536.877 249.62 549.37 230.269 559.341 219.254C559.491 219.095 559.623 218.944 559.764 218.801C560.752 217.712 561.722 216.719 562.651 215.845C564.684 213.906 566.509 212.523 567.977 212.014C568.29 211.904 568.592 211.769 568.881 211.609C572.963 209.392 579.549 201.341 585.713 192.909C586.318 192.115 586.907 191.248 587.505 190.43C588.873 188.538 590.201 186.639 591.453 184.819C592.415 183.428 593.336 182.077 594.207 180.79C598.355 174.607 601.275 169.998 601.275 169.998L607.032 169.751L608.036 169.704H608.708L634.847 168.543C634.847 168.543 635.975 168.726 637.833 169.084C637.933 169.084 638.033 169.084 638.14 169.147C647.415 170.912 673.181 176.498 674.757 184.247C676.681 193.736 718.242 206.396 718.242 206.396C718.789 212.753 728.968 216.941 728.968 216.941C728.968 216.941 744.381 255.962 740.258 271.252C736.185 286.352 750.86 323.704 751.25 324.753L748.437 328.154L678.863 412.465Z" fill="#E8F5FF"/>
<path opacity="0.1" d="M598.687 133.782C598.687 133.782 624.13 126.868 629.912 141.102C635.693 155.335 648.626 212.817 648.626 212.817C648.626 212.817 615.046 218.881 606.244 212.817C601.082 209.218 594.692 207.618 588.351 208.335L569.363 220.724L563.755 219.135C563.755 219.135 594.133 175.871 600.736 161.168C607.339 146.466 609.571 139.894 598.687 133.782Z" fill="black"/>
<path d="M597.584 130.603C597.584 130.603 623.043 123.689 628.85 137.923C634.656 152.156 647.564 209.638 647.564 209.638C647.564 209.638 613.992 215.702 605.182 209.638C600.023 206.039 593.636 204.438 587.297 205.156L568.292 217.545L562.685 215.956C562.685 215.956 593.063 172.692 599.666 157.989C606.269 143.287 608.467 136.731 597.584 130.603Z" fill="#E8F5FF"/>
<path opacity="0.1" d="M426.804 359.919C426.804 359.919 445.792 364.401 449.376 374.684C452.959 384.968 435.34 385.23 435.34 385.23C435.34 385.23 424.605 367.039 426.804 359.919Z" fill="black"/>
<path opacity="0.1" d="M497.531 435.846C497.531 435.846 451.027 527.071 461.761 535.773C472.495 544.475 497.531 435.846 497.531 435.846Z" fill="black"/>
<path opacity="0.1" d="M561.655 368.621C561.655 368.621 598.811 457.232 591.378 470.917C583.945 484.602 607.339 470.917 607.339 470.917L561.655 368.621Z" fill="black"/>
<path d="M613.395 456.151C613.395 456.151 487.901 461.952 524.509 499.391C561.117 536.83 636.241 500.981 636.241 500.981L613.395 456.151Z" fill="#FFC1C7"/>
<path opacity="0.1" d="M595.236 100.222C595.247 108.844 593.48 117.384 590.035 125.351C588.882 125.478 587.729 125.557 586.617 125.605C584.958 122.116 585.845 118.087 585.879 114.248C585.912 110.41 584.435 105.896 580.578 104.863C572.888 102.789 567.579 116.561 559.997 114.074C554.19 112.182 555.708 103.742 552.365 98.8707C549.718 95.0163 544.418 93.9275 540.295 91.5116C531.526 86.3539 531.792 78.1047 527.719 70.3006C523.455 62.123 514.446 64.5389 506.623 69.3629C500.684 73.0345 495.557 77.9537 489.203 80.8783C483.703 83.4214 477.523 84.3433 471.426 84.4784C467.672 84.6177 463.917 84.2376 460.276 83.3498C464.558 67.9275 474.55 54.5237 488.387 45.638C502.224 36.7523 518.962 32.9913 535.48 35.0564C551.998 37.1215 567.168 44.8717 578.161 56.8618C589.154 68.8518 595.22 84.2631 595.228 100.222H595.236Z" fill="black"/>
<path d="M506.648 67.2568C500.7 70.9284 495.581 75.8398 489.227 78.7802C483.727 81.3154 477.547 82.2372 471.45 82.3723C463.984 82.5313 455.946 81.2756 450.844 76.11C446.157 71.3417 445.037 64.0065 447.02 57.752C449.002 51.4976 453.756 46.3081 459.338 42.5491C464.921 38.7901 471.4 36.1914 475.1 30.8112C477.058 27.9661 478.003 24.6124 479.629 21.5845C484.831 11.897 496.527 6.65184 507.834 6.00017C519.141 5.34851 530.348 8.57505 541.116 12.0718C551.883 15.5685 562.734 19.415 574.098 20.1382C579.159 20.4402 584.418 20.1382 589.113 21.974C595.426 24.4296 599.566 30.3026 602.386 36.2788C605.547 43.018 607.513 50.3771 607.181 57.7361C606.484 73.4477 595.65 88.8652 600.412 103.917C601.673 107.93 604.037 112.047 602.776 116.06C600.934 121.917 593.045 123.253 586.666 123.531C585.007 120.042 585.895 116.005 585.928 112.174C585.961 108.344 584.484 103.822 580.635 102.789C572.937 100.73 567.628 114.479 560.062 111.999C554.297 110.1 555.79 101.668 552.439 96.7964C549.793 92.9341 544.484 91.8533 540.369 89.4374C531.601 84.2796 531.866 76.0305 527.793 68.2264C523.496 60.009 514.479 62.425 506.648 67.2568Z" fill="#99607E"/>
<path d="M384.961 369.67L378.631 371.784C378.631 371.784 381.12 407.641 372.825 417.925C364.529 428.209 400.067 453.775 400.067 453.775C400.067 453.775 448.778 453.512 450.155 449.801C451.532 446.09 447.667 383.363 447.667 383.363C447.667 383.363 421.519 373.604 423.717 358.051C423.717 358.051 415.737 394.696 403.908 393.114C392.078 391.533 378.648 382.068 384.961 369.67Z" fill="#E8F5FF"/>
<path opacity="0.1" d="M406.073 404.208C415.296 404.208 422.772 397.658 422.772 389.577C422.772 381.497 415.296 374.947 406.073 374.947C396.851 374.947 389.375 381.497 389.375 389.577C389.375 397.658 396.851 404.208 406.073 404.208Z" fill="black"/>
<path d="M424.332 370.727C424.332 370.727 421.014 273.708 392.129 295.324C363.244 316.94 362.962 342.792 368.462 350.43C373.962 358.067 391.598 396.301 391.598 396.301C394.356 397.832 397.455 398.716 400.639 398.88C403.823 399.043 407.002 398.481 409.915 397.241C412.829 396 415.394 394.116 417.401 391.742C419.408 389.369 420.8 386.573 421.462 383.585L424.332 370.727Z" fill="#FFC1C7"/>
<path opacity="0.1" d="M604.519 124.977C604.384 124.551 604.125 124.17 603.772 123.88C602.345 122.633 599.276 122.196 594.647 122.577L594.838 124.675C601.01 124.166 602.229 125.343 602.387 125.541V125.74L602.578 126.002C603.347 126.993 603.892 128.127 604.178 129.331C604.464 130.535 604.484 131.784 604.237 132.996C602.884 139.473 594.581 144.63 594.498 144.686L594.299 144.797L594.174 144.98C590.59 150.074 570.325 164.451 565.024 168.17L564.559 167.661C562.187 169.632 541.332 187.124 540.204 193.823C539.474 198.027 534.529 199.657 532.738 200.109C530.846 198.735 524.708 194.054 521.514 188.809C518.519 183.873 530.572 174.241 531.634 170.482L529.975 168.853C529.801 169.457 514.322 183.317 518.627 190.398C522.078 196.08 528.382 200.944 530.589 202.549C529.884 208.684 525.496 244.709 518.751 253.244C510.373 263.854 503.33 317.322 504.11 335.99C504.798 352.576 500.277 383.903 485.179 397.358C482.566 399.789 479.412 401.624 475.955 402.725C472.498 403.826 468.825 404.164 465.212 403.716H465.03H464.847C464.631 403.716 442.731 405.861 424.332 391C409.276 378.865 400.748 359.061 398.973 332.12H398.608L398.458 324.276C402.541 323.666 406.217 321.563 408.715 318.41C411.213 315.257 412.339 311.3 411.855 307.369C411.371 303.438 409.315 299.839 406.12 297.33C402.925 294.82 398.839 293.595 394.72 293.911C390.602 294.227 386.771 296.061 384.034 299.026C381.297 301.991 379.866 305.857 380.041 309.811C380.217 313.766 381.986 317.501 384.976 320.233C387.967 322.964 391.946 324.479 396.077 324.459H396.26L396.409 332.255L395.679 332.303C397.504 360.118 406.463 380.693 422.225 393.4C434.205 402.91 449.507 407.708 465.038 406.823C466.14 406.938 467.248 406.997 468.356 406.998C475.475 407.033 482.325 404.394 487.436 399.647C503.338 385.461 508.175 352.981 507.42 335.831C506.59 316.051 513.981 264.505 521.398 255.12C528.664 245.909 533.069 210.02 533.841 203.066C536.471 202.359 542.418 200.125 543.431 194.324C544.161 190.128 558.089 177.198 566.658 170.037L566.401 169.751C571.013 166.525 585.356 156.352 592.465 149.82C594.672 147.793 596.862 145.767 599.151 143.836C601.906 141.499 605.406 137.788 606.327 133.401C606.641 131.953 606.642 130.459 606.331 129.01C606.021 127.561 605.404 126.189 604.519 124.977Z" fill="black"/>
<path d="M530.307 202.049C529.959 201.818 521.697 196.152 517.557 189.333C513.26 182.252 528.739 168.4 528.905 167.796L530.564 169.426C529.511 173.177 517.458 182.817 520.452 187.744C524.227 193.966 532.174 199.41 532.257 199.466L530.307 202.049Z" fill="#353146"/>
<path d="M563.945 169.711L562.651 168.003C562.917 167.82 588.973 149.764 593.079 143.923L593.212 143.748L593.403 143.629C593.486 143.573 601.79 138.423 603.142 131.939C603.391 130.728 603.372 129.48 603.086 128.277C602.801 127.074 602.254 125.941 601.483 124.953L601.292 124.683V124.492C601.126 124.286 599.906 123.117 593.735 123.626L593.544 121.52C598.181 121.138 601.242 121.576 602.669 122.823C603.024 123.116 603.286 123.499 603.424 123.928C604.321 125.136 604.95 126.508 605.272 127.958C605.595 129.408 605.604 130.906 605.299 132.36C604.378 136.755 600.885 140.466 598.123 142.794C595.842 144.726 593.643 146.768 591.445 148.779C583.108 156.432 564.858 169.084 563.945 169.711Z" fill="#E8F5FF"/>
<path d="M397.388 321.509L395.19 321.547L395.435 334.348L397.633 334.31L397.388 321.509Z" fill="#E8F5FF"/>
<path d="M395.007 323.449C403.873 323.449 411.059 316.564 411.059 308.071C411.059 299.578 403.873 292.694 395.007 292.694C386.142 292.694 378.956 299.578 378.956 308.071C378.956 316.564 386.142 323.449 395.007 323.449Z" fill="#5FA8D3"/>
<path d="M395.007 320.843C402.37 320.843 408.338 315.125 408.338 308.071C408.338 301.018 402.37 295.3 395.007 295.3C387.645 295.3 381.676 301.018 381.676 308.071C381.676 315.125 387.645 320.843 395.007 320.843Z" fill="#E8F5FF"/>
<path d="M467.311 405.973C466.203 405.974 465.095 405.919 463.993 405.806C448.463 406.682 433.164 401.885 421.18 392.383C405.418 379.668 396.476 359.116 394.634 331.277L397.952 331.079C399.728 358.02 408.256 377.832 423.32 389.959C441.72 404.781 463.611 402.675 463.827 402.675H464.01H464.192C467.806 403.121 471.479 402.781 474.938 401.681C478.396 400.58 481.551 398.747 484.168 396.317C499.257 382.862 503.778 351.535 503.09 334.949C502.26 316.265 509.303 262.797 517.69 252.195C525.031 242.905 529.586 201.031 529.635 200.61L529.76 199.418L530.988 199.212C531.062 199.212 538.23 197.908 539.125 192.774C540.287 186.083 561.109 168.591 563.473 166.612L565.638 168.996C557.035 176.149 543.107 189.087 542.41 193.291C541.398 199.108 535.451 201.333 532.829 202.033C532 208.994 527.628 244.876 520.386 254.087C512.97 263.472 505.578 315.017 506.408 334.798C507.121 351.948 502.335 384.436 486.432 398.614C481.312 403.373 474.445 406.015 467.311 405.973Z" fill="#353146"/>
<g opacity="0.1">
<path opacity="0.1" d="M602.305 81.4344C603.665 76.6184 605.308 71.7707 606.453 66.8911C605.084 71.7945 603.433 76.6184 602.305 81.4344Z" fill="black"/>
<path opacity="0.1" d="M588.426 119.279C586.767 115.79 587.654 111.753 587.687 107.922C587.721 104.092 586.244 99.6096 582.395 98.5367C574.697 96.4784 569.388 110.235 561.822 107.747C556.015 105.848 557.55 97.4161 554.198 92.5445C551.552 88.6822 546.251 87.6014 542.137 85.1855C533.36 80.0278 533.626 71.7786 529.561 63.9745C525.289 55.789 516.288 58.2049 508.457 63.0368C502.509 66.7083 497.391 71.6276 491.036 74.5601C485.537 77.0953 479.356 78.0171 473.259 78.1522C465.835 78.3191 457.755 77.0555 452.653 71.8899C448.721 67.9163 447.303 62.091 448.115 56.6313C447.974 57.0049 447.85 57.3784 447.726 57.7519C445.735 64.0063 446.896 71.3574 451.55 76.1098C456.652 81.2755 464.731 82.5311 472.156 82.3722C478.261 82.2371 484.433 81.3152 489.941 78.7801C496.312 75.8396 501.431 70.9283 507.362 67.2567C515.193 62.4248 524.202 60.0089 528.466 68.1945C532.531 75.9986 532.273 84.2477 541.042 89.4054C545.19 91.7896 550.457 92.9022 553.112 96.7645C556.43 101.652 554.962 110.068 560.735 111.967C568.293 114.447 573.602 100.698 581.3 102.757C585.149 103.79 586.634 108.32 586.592 112.142C586.551 115.965 585.688 120.01 587.331 123.499C593.71 123.221 601.599 121.909 603.449 116.028C603.704 115.184 603.821 114.308 603.797 113.43C601.101 117.888 594.166 119.032 588.426 119.279Z" fill="black"/>
</g>
<path opacity="0.1" d="M738.349 315.097L747.98 324.856C747.98 324.856 755.687 378.634 759.536 383.665C763.385 388.695 772.477 408.706 763.941 423.734C763.941 423.734 761.187 431.912 762.837 435.337C764.488 438.762 750.46 455.904 750.46 455.904C750.46 455.904 732.02 471.719 728.162 474.095C724.305 476.472 703.948 495.449 697.071 495.712C690.194 495.974 687.946 504.152 687.946 504.152L649.139 505.471C649.139 505.471 627.704 504.398 623.042 507.299C623.042 507.299 625.53 475.923 601.581 455.356L632.125 444.81C632.125 444.81 643.689 440.042 647.264 435.059C649.514 432.004 652.704 429.7 656.389 428.471C656.389 428.471 664.917 422.669 665.191 419.506C665.465 416.343 675.618 412.465 675.618 412.465L669.87 365.458L672.897 287.417C672.897 287.417 682.529 222.028 702.894 225.723C723.26 229.418 738.349 315.097 738.349 315.097Z" fill="black"/>
<path d="M741.669 315.097L751.3 324.856C751.3 324.856 759.006 378.634 762.855 383.665C766.704 388.695 775.796 408.706 767.26 423.734C767.26 423.734 764.514 431.912 766.165 435.337C767.816 438.762 753.78 455.904 753.78 455.904C753.78 455.904 735.339 471.719 731.482 474.095C727.624 476.472 707.267 495.449 700.39 495.712C693.513 495.974 691.265 504.152 691.265 504.152L652.459 505.471C652.459 505.471 631.006 504.398 626.361 507.299C626.361 507.299 628.85 475.923 604.9 455.356L635.444 444.81C635.444 444.81 647.008 440.042 650.584 435.059C652.833 432.004 656.024 429.7 659.709 428.471C659.709 428.471 668.237 422.669 668.51 419.506C668.784 416.343 678.938 412.465 678.938 412.465L673.189 365.458L676.217 287.417C676.217 287.417 685.848 222.028 706.214 225.723C726.579 229.418 741.669 315.097 741.669 315.097Z" fill="#E8F5FF"/>
<path opacity="0.1" d="M705.864 393.933C705.864 393.933 734.21 386.78 741.643 395.522C749.076 404.264 705.864 393.933 705.864 393.933Z" fill="black"/>
<path opacity="0.1" d="M699.262 405.925C708.893 412.386 738.616 412.648 738.616 412.648L699.262 405.925Z" fill="black"/>
<path opacity="0.1" d="M449.849 270.012C449.849 270.012 455.606 307.984 452.769 323.449C449.932 338.914 460.284 358.075 460.284 358.075L449.849 270.012Z" fill="black"/>
<path d="M322.397 285.454C315.76 290.437 310.916 302.23 307.407 315.192C301.285 337.802 299.285 364.019 299.285 364.019C299.285 364.019 246.443 352.416 250.292 347.147C252.714 343.834 249.463 318.864 246.75 300.76C245.132 290.063 243.689 281.758 243.689 281.758C243.689 281.758 340.564 271.737 322.397 285.454Z" fill="#FFCCD0"/>
<path opacity="0.1" d="M322.397 284.397C315.76 289.388 310.916 301.173 307.407 314.135C296.879 317.198 285.681 317.474 275.003 314.935C264.324 312.395 254.561 307.135 246.75 299.711C245.132 289.006 243.689 280.701 243.689 280.701C243.689 280.701 340.564 270.688 322.397 284.397Z" fill="black"/>
<path d="M350.8 255.994C350.806 269.816 345.707 283.195 336.405 293.762C327.104 304.33 314.201 311.404 299.979 313.733C285.756 316.062 271.133 313.497 258.695 306.49C246.258 299.483 236.809 288.486 232.021 275.447C227.233 262.408 227.415 248.166 232.533 235.242C237.652 222.319 247.378 211.547 259.99 204.833C272.603 198.119 287.287 195.896 301.446 198.557C315.605 201.218 328.324 208.592 337.353 219.373C346.054 229.759 350.798 242.677 350.8 255.994Z" fill="#FFCCD0"/>
<path opacity="0.1" d="M398.981 622.008H381.56L380.092 592.532L378.557 562.023C378.557 562.023 382.514 561.459 388.819 560.616L391.365 560.29H391.573C392.95 566.481 394.31 572.839 395.621 579.189C397.803 590.461 398.938 601.897 399.014 613.361C399.014 614.156 399.014 614.951 399.014 615.698C399.064 617.82 399.014 619.942 398.981 622.008Z" fill="black"/>
<path d="M395.637 622.008H177.167C178.113 619.95 178.743 618.702 178.743 618.702C178.743 618.702 196.222 545.445 205.106 514.451C205.109 514.425 205.109 514.398 205.106 514.372C206.216 510.161 207.556 506.01 209.121 501.934C209.222 501.657 209.353 501.391 209.511 501.14C213.908 494.289 219.416 486.906 211.709 476.36C204.003 465.815 206.732 419.411 206.732 419.411C206.732 419.411 216.09 379.858 225.994 358.766C227.498 355.499 229.631 352.534 232.282 350.025C233.144 349.217 234.065 348.468 235.036 347.783C235.775 347.252 236.545 346.761 237.343 346.313L237.5 346.218C241.661 343.958 246.282 342.584 251.047 342.189C254.432 341.85 257.849 341.941 261.209 342.459C277.269 344.716 290.127 348.491 300.347 352.79C328.046 364.449 336.432 380.073 336.598 380.399L336.665 380.534C337.776 383.021 354.036 419.387 359.892 436.354C361.41 440.773 362.24 443.88 361.908 444.731C360.249 448.943 374.567 501.672 374.567 501.672C374.567 501.672 381.203 527.103 387.84 556.913C388.13 558.153 388.404 559.392 388.669 560.648C389.855 566.06 391.033 571.575 392.17 577.083C394.372 588.433 395.507 599.949 395.563 611.494C395.685 615.091 395.709 618.596 395.637 622.008Z" fill="#FF748E"/>
<path opacity="0.1" d="M249.745 324.053C249.745 324.053 234.672 318.49 234.854 326.93C235.037 335.37 238.529 339.407 237.426 340.639C236.322 341.871 237.973 349.254 237.973 349.254C237.973 349.254 258.339 349.254 267.696 353.291C277.053 357.328 311.546 365.418 315.951 367.882C320.356 370.345 336.69 381.392 336.69 381.392L338.158 360.475C338.158 360.475 321.277 347.116 293.578 340.265C265.879 333.415 249.745 324.053 249.745 324.053Z" fill="black"/>
<path d="M249.745 322.996C249.745 322.996 234.672 317.433 234.854 325.873C235.037 334.313 238.529 338.35 237.426 339.582C236.322 340.814 237.973 348.197 237.973 348.197C237.973 348.197 258.339 348.197 267.696 352.242C277.053 356.287 311.546 364.369 315.951 366.825C320.356 369.28 336.69 380.335 336.69 380.335L338.175 359.481C338.175 359.481 321.293 346.122 293.595 339.272C265.896 332.421 249.745 322.996 249.745 322.996Z" fill="#FF748E"/>
<path opacity="0.1" d="M295.246 373.333C295.246 373.333 324.048 403.207 322.579 411.48C321.111 419.753 295.246 373.333 295.246 373.333Z" fill="black"/>
<path opacity="0.1" d="M248.459 481.248C248.459 481.248 227.347 499.884 221.125 500.941C214.904 501.998 225.895 505.511 233.046 502.705C240.197 499.9 255.444 492.517 255.444 492.517L248.459 481.248Z" fill="black"/>
<path d="M404.215 622.008H354.981C348.096 616.286 341.584 610.985 337.436 607.798C330.8 602.696 326.013 595.186 322.961 589.146C322.272 587.772 321.675 586.484 321.169 585.316C320.263 583.303 319.465 581.248 318.78 579.157L355.239 558.415C357.253 560.056 359.147 561.83 360.904 563.723L361.344 564.208C363.368 566.497 365.152 569.096 365.309 571.226C365.492 573.705 372.692 583.297 380.05 592.508C387.516 601.878 395.165 610.834 395.671 611.438C395.671 611.438 396.932 613.083 398.989 615.61C400.441 617.438 402.233 619.632 404.215 622.008Z" fill="#FFCCD0"/>
<path opacity="0.1" d="M337.353 219.373C335.603 223.156 334.035 227.082 333.803 231.294C333.148 243.453 334.209 270.64 320.157 276.744C313.197 279.748 305.748 273.152 298.116 272.993C292.624 272.882 287.589 276.219 284.237 280.392C280.886 284.564 278.804 289.515 276.373 294.236C274.161 298.52 271.612 302.638 268.75 306.554C267.894 307.752 266.951 308.891 265.929 309.963C257.36 306.499 249.73 301.207 243.62 294.49C237.509 287.773 233.08 279.809 230.669 271.204C228.258 262.598 227.929 253.579 229.708 244.834C231.487 236.089 235.326 227.848 240.932 220.739C246.539 213.63 253.766 207.841 262.061 203.814C270.357 199.786 279.503 197.625 288.803 197.497C298.102 197.368 307.309 199.275 315.723 203.071C324.137 206.868 331.535 212.454 337.353 219.405V219.373Z" fill="black"/>
<path d="M332.7 229.148C332.036 241.307 333.106 268.495 319.045 274.59C312.085 277.594 304.636 271.006 297.004 270.847C291.512 270.728 286.485 274.073 283.126 278.238C279.766 282.402 277.7 287.361 275.261 292.09C273.048 296.374 270.5 300.492 267.638 304.408C265.929 306.728 264.038 309.057 261.408 310.36C256.829 312.649 251.279 311.361 246.368 309.891C239.997 307.968 233.72 305.801 227.537 303.39C227.679 302.496 227.751 301.593 227.753 300.688C227.571 301.022 227.372 301.332 227.172 301.666L226.783 302.318C226.077 303.51 225.389 304.702 224.758 305.926C224.518 306.394 224.286 306.879 224.078 307.364C223.244 309.168 222.72 311.09 222.527 313.054C222.104 318.355 224.833 323.385 227.255 328.154C236.571 346.599 242.328 368.168 235.319 387.519C232.282 395.935 227.023 403.413 223.182 411.543C216.468 425.943 214.492 441.96 217.516 457.462C219.433 467.094 223.274 476.63 222.328 486.398C220.669 503.206 205.538 515.715 190.382 524.313C182.194 528.939 172.173 533.055 163.479 529.4C169.021 523.201 170.448 514.626 171.642 506.536C174.911 484.469 178.187 462.392 181.472 440.304C182.783 431.514 184.091 422.725 185.396 413.935C187.835 397.421 190.307 380.724 188.781 364.107C187.669 351.86 184.534 338.859 190.075 327.772C193.003 321.899 198.221 317.036 199.847 310.71C201.183 305.568 199.938 300.1 200.818 294.863C201.299 292.48 202.114 290.171 203.24 287.997C204.674 285.047 206.546 282.311 208.798 279.875C206.575 279.255 204.501 278.405 203.24 276.624C206.807 274.399 207.346 269.385 205.729 265.618C204.111 261.851 200.876 258.982 197.964 256.01C195.052 253.037 192.248 249.572 191.883 245.519C191.178 237.803 199.225 231.826 200.643 224.213C202.078 216.464 196.404 208.931 196.861 201.087C197.392 191.606 206.483 184.716 215.459 180.718C229.004 174.711 243.966 172.244 258.828 173.566C270.923 174.662 282.628 178.247 294.69 179.637C301.965 180.432 309.339 180.512 316.565 181.735C323.79 182.959 331.032 185.542 336.117 190.62C349.523 204.011 333.463 215.034 332.7 229.148Z" fill="#FFE0D0"/>
<path opacity="0.1" d="M321.484 589.154C317.253 587.398 309.555 588.447 296.34 584.593C283.125 580.738 280.579 563.318 280.579 563.318V563.262C280.421 562.865 279.193 560.274 270.881 551.199C261.698 541.177 241.847 490.562 241.847 490.562C241.847 490.562 224.244 472.45 224.8 465.775C225.355 459.099 221.672 441.337 222.037 421.469C222.402 401.601 261.665 388.425 261.665 388.425C337.262 375.59 319.46 459.083 317.444 465.409C315.428 471.735 325.889 488.822 325.889 488.822C324.412 496.26 331.944 507.775 331.944 507.775C331.944 507.775 333.769 517.964 334.143 521.834C334.163 522.013 334.205 522.189 334.267 522.359C335.478 526.006 345.35 529.312 349.365 531.323C353.587 533.437 367.167 551.89 367.167 551.89C370.095 565.44 325.698 590.935 321.484 589.154Z" fill="black"/>
<path d="M323.682 585.975C319.46 584.211 311.753 585.268 298.547 581.406C285.34 577.544 282.785 560.139 282.785 560.139V560.084C282.636 559.678 281.4 557.095 273.088 548.02C263.905 537.998 244.054 487.375 244.054 487.375C244.054 487.375 226.45 469.271 226.998 462.596C227.545 455.92 223.879 438.158 224.244 418.306C224.609 398.454 263.847 385.286 263.847 385.286C339.444 372.451 321.641 455.944 319.626 462.27C317.61 468.596 328.07 485.682 328.07 485.682C326.594 493.121 334.126 504.636 334.126 504.636C334.126 504.636 335.951 514.825 336.333 518.695C336.347 518.874 336.386 519.05 336.449 519.219C337.66 522.867 347.532 526.173 351.555 528.184C355.769 530.29 369.357 548.751 369.357 548.751C372.302 562.277 327.905 587.772 323.682 585.975Z" fill="#FF748E"/>
<path opacity="0.1" d="M265.34 428.876C265.34 428.876 298.365 462.254 306.984 462.254C315.603 462.254 265.34 428.876 265.34 428.876Z" fill="black"/>
<path d="M323.683 585.976C319.46 584.211 311.754 585.268 298.547 581.406C285.341 577.544 282.786 560.139 282.786 560.139V560.084C291.537 554.521 313.703 538.809 322.438 533.063C328.585 529.034 333.604 523.114 336.541 519.188C337.752 522.835 347.623 526.141 351.647 528.152C355.861 530.258 369.449 548.719 369.449 548.719C372.302 562.277 327.905 587.772 323.683 585.976Z" fill="#FF748E"/>
<g opacity="0.1">
<path opacity="0.1" d="M203.29 276.712C203.331 276.776 203.389 276.831 203.439 276.895C203.688 276.593 203.945 276.291 204.21 276.005C203.928 276.268 203.619 276.505 203.29 276.712Z" fill="black"/>
<path opacity="0.1" d="M222.535 313.142C222.884 308.731 225.347 304.845 227.654 300.967C226.144 300.41 224.634 299.846 223.141 299.258C223.283 298.366 223.355 297.466 223.357 296.564C221.025 300.538 218.487 304.448 218.13 308.922C217.707 314.231 220.436 319.253 222.859 324.021C232.183 342.459 237.932 364.027 230.922 383.387C227.878 391.795 222.626 399.281 218.786 407.411C212.074 421.808 210.101 437.823 213.128 453.322C215.028 462.961 218.877 472.49 217.931 482.257C216.272 499.065 201.149 511.574 185.985 520.165C179.788 523.678 172.546 526.896 165.62 526.666C164.979 527.655 164.263 528.598 163.479 529.487C172.181 533.167 182.194 529.026 190.382 524.385C205.554 515.802 220.71 503.325 222.369 486.485C223.315 476.718 219.466 467.189 217.558 457.549C214.529 442.052 216.497 426.039 223.199 411.639C227.015 403.517 232.324 396.023 235.335 387.615C242.345 368.255 236.588 346.687 227.272 328.249C224.858 323.449 222.112 318.45 222.535 313.142Z" fill="black"/>
<path opacity="0.1" d="M336.1 190.716C335.284 189.914 334.408 189.17 333.479 188.491C343.533 200.984 329.016 211.601 328.294 225.048C327.647 237.207 328.709 264.402 314.648 270.489C307.697 273.501 300.239 266.905 292.615 266.746C287.115 266.635 282.088 269.981 278.729 274.145C275.369 278.309 273.303 283.269 270.873 287.989C268.655 292.273 266.104 296.391 263.241 300.307C261.582 302.636 259.641 304.956 257.003 306.268C252.44 308.548 246.891 307.269 241.971 305.791C237.188 304.35 232.448 302.76 227.753 301.022C227.743 301.85 227.671 302.676 227.537 303.494C233.726 305.91 240.005 308.077 246.376 309.995C251.287 311.473 256.837 312.752 261.408 310.472C264.037 309.16 265.945 306.832 267.646 304.503C270.511 300.592 273.06 296.477 275.269 292.193C277.708 287.473 279.766 282.506 283.134 278.341C286.502 274.177 291.52 270.839 297.012 270.95C304.644 271.109 312.102 277.705 319.053 274.694C333.114 268.606 332.044 241.411 332.699 229.252C333.462 215.114 349.523 204.099 336.1 190.716Z" fill="black"/>
</g>
<path opacity="0.1" d="M226.791 302.326C226.086 303.518 225.398 304.71 224.767 305.934C224.527 306.402 224.294 306.887 224.087 307.372C219.74 303.176 209.155 293.202 203.249 290.111C204.685 287.162 206.556 284.426 208.807 281.989C208.807 281.989 222.884 289.117 226.791 302.326Z" fill="black"/>
<path d="M227.181 301.674C223.921 287.536 208.807 279.883 208.807 279.883C206.555 282.319 204.683 285.055 203.249 288.005C209.478 291.271 220.959 302.222 224.767 305.934L227.181 301.674Z" fill="#FF748E"/>
</g>
<defs>
<linearGradient id="paint0_linear_614:14" x1="605.597" y1="75.8237" x2="605.597" y2="61.2168" gradientUnits="userSpaceOnUse">
<stop stop-color="#808080" stop-opacity="0.25"/>
<stop offset="0.54" stop-color="#808080" stop-opacity="0.12"/>
<stop offset="1" stop-color="#808080" stop-opacity="0.1"/>
</linearGradient>
<linearGradient id="paint1_linear_614:14" x1="380575" y1="523324" x2="380575" y2="36487.2" gradientUnits="userSpaceOnUse">
<stop stop-color="#808080" stop-opacity="0.25"/>
<stop offset="0.54" stop-color="#808080" stop-opacity="0.12"/>
<stop offset="1" stop-color="#808080" stop-opacity="0.1"/>
</linearGradient>
<clipPath id="clip0_614:14">
<rect width="901" height="622" fill="white"/>
</clipPath>
</defs>
</svg>
