<svg width="159" height="50" viewBox="0 0 159 50" fill="none" xmlns="http://www.w3.org/2000/svg">
<path d="M17.629 14.1876L24.4707 42.5543C24.8415 44.0897 26.9936 44.1689 27.4769 42.6668L34.2623 21.5772L35.4832 25.9439C35.575 26.2722 35.7717 26.5615 36.0433 26.7677C36.3148 26.9738 36.6464 27.0854 36.9873 27.0856H44.2665C44.6809 27.0856 45.0783 26.9209 45.3714 26.6279C45.6644 26.3349 45.829 25.9375 45.829 25.5231C45.829 25.1087 45.6644 24.7112 45.3714 24.4182C45.0783 24.1252 44.6809 23.9606 44.2665 23.9606H38.1728L35.8707 15.7314C35.454 14.2376 33.354 14.198 32.879 15.673L26.204 36.4168L19.2207 7.44597C18.8415 5.86888 16.6061 5.84388 16.1915 7.41263L11.8123 23.9606H5.729C5.3146 23.9606 4.91717 24.1252 4.62415 24.4182C4.33112 24.7112 4.1665 25.1087 4.1665 25.5231C4.1665 25.9375 4.33112 26.3349 4.62415 26.6279C4.91717 26.9209 5.3146 27.0856 5.729 27.0856H13.0123C13.3571 27.0855 13.6921 26.9715 13.9653 26.7613C14.2385 26.551 14.4345 26.2563 14.5228 25.923L17.629 14.1876Z" fill="#5FA8D3"/>
<path d="M57.918 27.3164C57.7852 29.1523 57.1055 30.5977 55.8789 31.6523C54.6602 32.707 53.0508 33.2344 51.0508 33.2344C48.8633 33.2344 47.1406 32.5 45.8828 31.0312C44.6328 29.5547 44.0078 27.5312 44.0078 24.9609V23.918C44.0078 22.2773 44.2969 20.832 44.875 19.582C45.4531 18.332 46.2773 17.375 47.3477 16.7109C48.4258 16.0391 49.6758 15.7031 51.0977 15.7031C53.0664 15.7031 54.6523 16.2305 55.8555 17.2852C57.0586 18.3398 57.7539 19.8203 57.9414 21.7266H54.4258C54.3398 20.625 54.0312 19.8281 53.5 19.3359C52.9766 18.8359 52.1758 18.5859 51.0977 18.5859C49.9258 18.5859 49.0469 19.0078 48.4609 19.8516C47.8828 20.6875 47.5859 21.9883 47.5703 23.7539V25.043C47.5703 26.8867 47.8477 28.2344 48.4023 29.0859C48.9648 29.9375 49.8477 30.3633 51.0508 30.3633C52.1367 30.3633 52.9453 30.1172 53.4766 29.625C54.0156 29.125 54.3242 28.3555 54.4023 27.3164H57.918ZM74.1133 33H70.5977V25.6875H63.7422V33H60.2266V15.9375H63.7422V22.8516H70.5977V15.9375H74.1133V33ZM87.4609 25.6055H80.7109V30.1758H88.6328V33H77.1953V15.9375H88.6094V18.7852H80.7109V22.8516H87.4609V25.6055ZM104.09 27.3164C103.957 29.1523 103.277 30.5977 102.051 31.6523C100.832 32.707 99.2227 33.2344 97.2227 33.2344C95.0352 33.2344 93.3125 32.5 92.0547 31.0312C90.8047 29.5547 90.1797 27.5312 90.1797 24.9609V23.918C90.1797 22.2773 90.4688 20.832 91.0469 19.582C91.625 18.332 92.4492 17.375 93.5195 16.7109C94.5977 16.0391 95.8477 15.7031 97.2695 15.7031C99.2383 15.7031 100.824 16.2305 102.027 17.2852C103.23 18.3398 103.926 19.8203 104.113 21.7266H100.598C100.512 20.625 100.203 19.8281 99.6719 19.3359C99.1484 18.8359 98.3477 18.5859 97.2695 18.5859C96.0977 18.5859 95.2188 19.0078 94.6328 19.8516C94.0547 20.6875 93.7578 21.9883 93.7422 23.7539V25.043C93.7422 26.8867 94.0195 28.2344 94.5742 29.0859C95.1367 29.9375 96.0195 30.3633 97.2227 30.3633C98.3086 30.3633 99.1172 30.1172 99.6484 29.625C100.188 29.125 100.496 28.3555 100.574 27.3164H104.09ZM111.742 26.1562L109.914 28.125V33H106.398V15.9375H109.914V23.6719L111.461 21.5508L115.809 15.9375H120.133L114.074 23.5195L120.309 33H116.125L111.742 26.1562ZM140.523 15.9375V27.1758C140.523 29.043 139.938 30.5195 138.766 31.6055C137.602 32.6914 136.008 33.2344 133.984 33.2344C131.992 33.2344 130.41 32.707 129.238 31.6523C128.066 30.5977 127.469 29.1484 127.445 27.3047V15.9375H130.961V27.1992C130.961 28.3164 131.227 29.1328 131.758 29.6484C132.297 30.1562 133.039 30.4102 133.984 30.4102C135.961 30.4102 136.965 29.3711 136.996 27.293V15.9375H140.523ZM146.922 26.9883V33H143.406V15.9375H150.062C151.344 15.9375 152.469 16.1719 153.438 16.6406C154.414 17.1094 155.164 17.7773 155.688 18.6445C156.211 19.5039 156.473 20.4844 156.473 21.5859C156.473 23.2578 155.898 24.5781 154.75 25.5469C153.609 26.5078 152.027 26.9883 150.004 26.9883H146.922ZM146.922 24.1406H150.062C150.992 24.1406 151.699 23.9219 152.184 23.4844C152.676 23.0469 152.922 22.4219 152.922 21.6094C152.922 20.7734 152.676 20.0977 152.184 19.582C151.691 19.0664 151.012 18.8008 150.145 18.7852H146.922V24.1406Z" fill="#5FA8D3"/>
</svg>
